<?xml version="1.0" encoding="UTF-8" standalone="no"?>
<!-- Generator: Adobe Illustrator 17.0.2, SVG Export Plug-In . SVG Version: 6.00 Build 0)  -->

<svg
   xmlns:dc="http://purl.org/dc/elements/1.1/"
   xmlns:cc="http://creativecommons.org/ns#"
   xmlns:rdf="http://www.w3.org/1999/02/22-rdf-syntax-ns#"
   xmlns:svg="http://www.w3.org/2000/svg"
   xmlns="http://www.w3.org/2000/svg"
   xmlns:xlink="http://www.w3.org/1999/xlink"
   xmlns:sodipodi="http://sodipodi.sourceforge.net/DTD/sodipodi-0.dtd"
   xmlns:inkscape="http://www.inkscape.org/namespaces/inkscape"
   version="1.1"
   id="Layer_1"
   x="0px"
   y="0px"
   width="380.95001"
   height="181.491"
   viewBox="0 0 380.95001 181.491"
   enable-background="new 0 0 1040.948 181.491"
   xml:space="preserve"
   inkscape:version="0.48.4 r9939"
   sodipodi:docname="IOnotepadJS.svg"><metadata
     id="metadata66"><rdf:RDF><cc:Work
         rdf:about=""><dc:format>image/svg+xml</dc:format><dc:type
           rdf:resource="http://purl.org/dc/dcmitype/StillImage" /></cc:Work></rdf:RDF></metadata><defs
     id="defs64"><linearGradient
       y2="167.9362"
       x2="269.79459"
       y1="-9.7846003"
       x1="269.79459"
       gradientUnits="userSpaceOnUse"
       id="SVGID_1_"><stop
         id="stop26"
         style="stop-color:#F29100"
         offset="0" /><stop
         id="stop28"
         style="stop-color:#EC670F"
         offset="1" /></linearGradient><linearGradient
       inkscape:collect="always"
       xlink:href="#SVGID_1_"
       id="linearGradient3019"
       gradientUnits="userSpaceOnUse"
       x1="269.79459"
       y1="-9.7846003"
       x2="269.79459"
       y2="167.9362" /></defs><sodipodi:namedview
     pagecolor="#ffffff"
     bordercolor="#666666"
     borderopacity="1"
     objecttolerance="10"
     gridtolerance="10"
     guidetolerance="10"
     inkscape:pageopacity="0"
     inkscape:pageshadow="2"
     inkscape:window-width="1329"
     inkscape:window-height="809"
     id="namedview62"
     showgrid="false"
     inkscape:zoom="0.9455733"
     inkscape:cx="556.83204"
     inkscape:cy="90.745499"
     inkscape:window-x="0"
     inkscape:window-y="24"
     inkscape:window-maximized="0"
     inkscape:current-layer="Layer_1" /><path
     style="fill:#484444"
     inkscape:connector-curvature="0"
     id="path5"
     d="M 31.106,142.957 H 7.14 V 28.076 h 23.966 v 114.881 z" /><path
     style="fill:#484444"
     inkscape:connector-curvature="0"
     id="path7"
     d="m 145.313,85.36 c 0,8.853 -1.035,16.921 -3.103,24.201 -2.07,7.283 -5.225,13.516 -9.469,18.702 -4.243,5.186 -9.599,9.194 -16.069,12.022 -6.471,2.829 -14.104,4.243 -22.905,4.243 -8.801,0 -16.436,-1.414 -22.906,-4.243 -6.47,-2.829 -11.813,-6.836 -16.03,-12.022 -4.217,-5.186 -7.36,-11.433 -9.429,-18.741 -2.07,-7.307 -3.103,-15.413 -3.103,-24.319 0,-8.905 1.033,-16.986 3.103,-24.241 2.069,-7.255 5.225,-13.449 9.469,-18.584 4.243,-5.133 9.598,-9.102 16.069,-11.905 6.469,-2.801 14.131,-4.204 22.984,-4.204 8.801,0 16.423,1.403 22.866,4.204 6.443,2.803 11.773,6.785 15.991,11.944 4.216,5.161 7.359,11.369 9.429,18.623 2.068,7.256 3.103,15.362 3.103,24.32 z m -77.948,0 c 0,6.024 0.523,11.433 1.572,16.226 1.047,4.793 2.658,8.854 4.832,12.179 2.173,3.327 4.911,5.881 8.211,7.662 3.3,1.781 7.229,2.671 11.787,2.671 4.661,0 8.656,-0.89 11.983,-2.671 3.326,-1.781 6.05,-4.335 8.171,-7.662 2.122,-3.325 3.694,-7.385 4.715,-12.179 1.021,-4.793 1.533,-10.202 1.533,-16.226 0,-6.024 -0.511,-11.434 -1.533,-16.227 -1.021,-4.792 -2.593,-8.865 -4.715,-12.219 -2.121,-3.352 -4.832,-5.918 -8.132,-7.7 -3.301,-1.78 -7.256,-2.671 -11.865,-2.671 -4.558,0 -8.513,0.891 -11.866,2.671 -3.353,1.782 -6.117,4.349 -8.29,7.7 -2.175,3.354 -3.786,7.427 -4.832,12.219 -1.048,4.793 -1.571,10.203 -1.571,16.227 z" /><path
     inkscape:connector-curvature="0"
     style="fill:url(#linearGradient3019)"
     id="path30"
     d="m 331.39,143.791 h 19.13 V 26.778 h -19.13 v -18.1 h 41.52 v 153.213 h -41.52 v -18.1 z m 1.734,-67.111 c 2.605,-0.258 0.049,-6.301 -0.981,-7.508 -1.591,-1.863 -4.247,-2.717 -7.072,-3.466 -3.355,-0.889 -6.4,-1.916 -9.56,-1.296 -5.518,1.08 -5.105,-2.077 -8.357,-2.077 -3.902,0 -10.844,0.191 -12.045,3.985 -0.559,1.771 -1.135,1.845 -2.103,3.204 -0.828,1.164 0.144,2.192 -0.271,3.52 -0.43,1.365 -1.06,6.174 -1.718,7.851 -1.112,2.839 -2.439,6.384 -4.887,6.384 -3.433,0.411 -6.13,0.543 -8.914,-0.469 -1.675,-0.609 -4.484,-1.561 -5.873,-2.146 -6.408,-2.698 -7.461,-5.649 -7.461,-5.649 -0.688,-1.137 -2.499,-2.97 -3.176,-5.361 -0.746,-2.634 -2.003,-4.83 -2.513,-6.201 -0.528,-1.419 -1.789,-3.694 -2.779,-6.153 -1.268,-3.149 -3.053,-5.497 -4.359,-6.664 -1.996,-1.779 -3.838,-4.533 -7.889,-3.732 -0.724,0.143 -3.356,0.262 -5.372,1.954 -1.368,1.147 -1.799,3.515 -3.065,5.511 -0.732,1.154 -2.017,4.463 -3.198,7.224 -0.818,1.913 -1.199,3.348 -2.084,4.053 -0.692,0.551 -1.549,1.264 -2.585,0.876 -0.643,-0.241 -1.331,-0.649 -2.024,-1.192 -0.937,-0.732 -3.067,-4.355 -4.374,-7.033 -1.133,-2.32 -3.553,-5.791 -4.954,-7.671 -2.014,-2.703 -3.196,-3.388 -6.173,-3.388 -6.386,0 -6.869,3.575 -9.678,8.775 -1.233,2.284 -1.483,5.909 -3.959,8.75 -1.057,1.213 -4.145,5.24 -6.308,7.678 V 27.084 h 18.387 V 8.697 h -41.101 v 153.588 h 41.101 v -18.387 h -18.387 v -23.184 c 0,-1.473 2.578,-2.944 3.497,-4.503 0.851,-1.448 1.723,-2.867 2.287,-4.387 0.485,-1.31 0.674,-3.261 1.375,-4.397 0.859,-1.393 2.179,-1.867 3.56,-2.092 2.163,-0.357 3.988,3.109 6.755,4.385 1.18,0.542 6.605,2.465 8.235,2.86 2.685,0.642 5.661,1.178 8.387,1.728 1.46,0.295 2.854,0.467 4.357,0.619 1.349,0.135 6.399,0.302 6.711,0.667 -2.568,1.31 -4.073,4.985 -5.037,7.586 -1.005,2.711 -1.706,5.727 -2.921,8.378 -1.347,2.929 -4.169,4.149 -3.832,7.561 0.129,1.362 0.378,2.791 0.15,4.289 -0.243,1.578 -0.88,2.809 -1.345,4.354 -0.596,2.015 -1.305,8.526 -2.224,10.439 0,0 -0.782,1.928 -0.777,2.685 0.208,0.353 8.184,0.581 9.007,0.484 0.823,-0.097 2.712,-0.339 3.535,-0.726 0.823,-0.387 -1.943,-2.726 -2.615,-2.954 -0.672,-0.228 -1.356,-0.242 -1.889,0 -0.533,0.242 -1.55,-0.847 -1.415,-0.91 0.135,-0.064 0,0 0,0 0.526,-2.146 0.984,-6.974 1.16,-7.49 1.051,-3.088 2.444,-5.629 4.589,-8.018 2.091,-2.327 1.982,-5.328 3.203,-8.038 1.322,-2.947 3.1,-5.304 4.778,-8.074 3.032,-5.009 5.033,-11.333 11.48,-12.62 0.689,-0.142 4.636,2.704 6.387,4.396 2.007,1.928 4.198,4.162 5.516,6.821 2.551,5.153 4.716,12.619 5.534,16.735 0.471,2.364 0.845,2.505 2.444,4.378 0.736,0.858 2.204,3.539 2.687,4.568 0.508,1.099 1.279,3.6 1.893,4.876 0.362,0.76 1.301,3.095 1.984,5.112 0,0 0.906,3.515 1.236,3.784 0.329,0.269 3.729,0.63 6.731,0.387 3.002,-0.242 4.028,-2.012 4.019,-2.324 -0.009,-0.312 -2.164,-2.574 -3.922,-1.646 0,0 -1.248,0.006 -3.571,-2.264 -2.138,-4.81 -3.547,-10.175 -4.314,-15.336 -0.22,-1.499 0.208,-2.99 -0.245,-4.396 -0.386,-1.227 -1.273,-1.34 -1.854,-2.337 -1.534,-2.618 -3.119,-6.009 -3.265,-9.214 -0.134,-2.879 -1.192,-5.48 -1.336,-8.333 -0.07,-1.376 0.093,-2.797 0.043,-4.16 -0.027,-0.663 -0.064,-1.238 -0.195,-1.958 -0.033,-0.178 -0.15,-0.911 -0.206,-1.205 l 0.358,-0.892 c -0.158,-0.306 3.055,-0.205 4.013,-0.197 1.626,0.02 3.156,0.104 4.778,0.182 3.314,0.165 6.332,0.123 9.56,-0.375 7.191,-1.11 10.497,-4.047 12.189,-5.268 6.603,-4.761 9.627,-12.545 9.627,-12.545 1.09,-2.431 1.086,-6.769 3.421,-8.712 2.753,-2.293 7.374,-2.129 10.534,-3.536 1.848,-0.818 3.182,-1.268 5.072,-0.877 1.402,0.293 3.927,1.917 4.506,-0.363 -0.469,-0.302 -0.652,-0.855 -0.903,-1.161 z" /><g
     id="g32" /><g
     id="g34" /><g
     id="g36" /><g
     id="g38" /><g
     id="g40" /><g
     id="g42" /><g
     id="g44" /><g
     id="g46" /><g
     id="g48" /><g
     id="g50" /><g
     id="g52" /><g
     id="g54" /><g
     id="g56" /><g
     id="g58" /><g
     id="g60" /><text
     xml:space="preserve"
     style="font-size:32px;font-style:normal;font-variant:normal;font-weight:normal;font-stretch:normal;line-height:125%;letter-spacing:0px;word-spacing:0px;fill:#000000;fill-opacity:1;stroke:none;font-family:Droid Sans Mono;-inkscape-font-specification:Droid Sans Mono"
     x="299.81812"
     y="140.24619"
     id="text3062"
     sodipodi:linespacing="125%"><tspan
       sodipodi:role="line"
       id="tspan3064"
       x="299.81812"
       y="140.24619" /></text>
<text
     xml:space="preserve"
     style="font-size:50.34410858px;font-style:italic;font-variant:normal;font-weight:bold;font-stretch:normal;line-height:125%;letter-spacing:0px;word-spacing:0px;fill:#000000;fill-opacity:1;stroke:none;font-family:Arial;-inkscape-font-specification:Arial Bold Italic"
     x="279.18021"
     y="142.57266"
     id="text3066"
     sodipodi:linespacing="125%"
     transform="scale(1.0184883,0.98184732)"><tspan
       sodipodi:role="line"
       id="tspan3068"
       x="279.18021"
       y="142.57266">JS</tspan></text>
</svg>